<?xml version="1.0" encoding="UTF-8"?>
<svg width="45px" height="45px" viewBox="0 0 45 45">
    <g id="Page-1" stroke="none" stroke-width="1" fill="none" fill-rule="evenodd">
        <g id="Dashboard" transform="translate(-118.000000, -167.000000)">
            <path d="M133.750807,190.555507 C133.750807,191.891715 132.742792,192.976174 131.500774,192.976174 C130.258756,192.976174 129.250741,191.891715 129.250741,190.555507 C129.250741,189.219299 130.258756,188.134841 131.500774,188.134841 C132.742792,188.134841 133.750807,189.219299 133.750807,190.555507 M151.75107,190.555507 C151.75107,191.891715 150.743055,192.976174 149.501037,192.976174 C148.259019,192.976174 147.251004,191.891715 147.251004,190.555507 C147.251004,189.219299 148.259019,188.134841 149.501037,188.134841 C150.743055,188.134841 151.75107,189.219299 151.75107,190.555507 M142.750938,190.555507 C142.750938,191.891715 141.742924,192.976174 140.500906,192.976174 C139.258887,192.976174 138.250873,191.891715 138.250873,190.555507 C138.250873,189.219299 139.258887,188.134841 140.500906,188.134841 C141.742924,188.134841 142.750938,189.219299 142.750938,190.555507 M158.152413,191.134047 C157.2614,194.128411 154.52086,196.048 151.598068,196.048 L151.555317,196.048 L144.087458,196.048 C142.928691,196.048 141.812675,196.529713 140.975663,197.39147 L133.404302,205.190858 C132.688792,205.926741 131.500774,205.382091 131.500774,204.316997 L131.500774,198.468667 C131.500774,197.132459 130.49276,196.048 129.250741,196.048 C127.286463,196.048 125.850942,196.253757 124.275919,194.992589 C123.434406,194.319644 122.813397,193.36106 122.595144,192.211243 C122.376891,191.056585 122.545643,189.960023 122.98665,189.035329 C124.228668,186.423429 127.439465,185.428535 129.783999,187.432847 C127.504716,179.359924 133.2738,171.841333 140.500906,171.841333 C146.017986,171.841333 150.520302,176.188851 151.526067,181.548207 C151.564317,181.548207 151.600318,181.540945 151.638568,181.536103 C151.674569,181.531262 151.712819,181.524 151.75107,181.524 C156.014882,181.524 159.664435,186.050647 158.152413,191.134047 M155.004617,177.258785 C154.991117,177.253944 154.982117,177.246682 154.973117,177.23942 C154.964117,177.229737 154.957367,177.220055 154.952867,177.207951 C152.518331,171.17565 146.94725,167 140.500906,167 C132.490789,167 125.893692,173.436553 124.894678,181.758805 C124.892428,181.77817 124.885678,181.795115 124.874427,181.807218 C124.863177,181.821742 124.847427,181.831425 124.831677,181.836266 C120.545364,182.983662 117.467319,187.401379 118.077078,192.494461 C118.585586,196.730628 121.818883,200.07841 125.985944,200.741673 C126.557452,200.833658 127.000709,201.322633 127.000709,201.944744 L127.000709,207.149177 C127.000709,211.462805 131.847279,213.62204 134.682321,210.572 L143.023192,201.598589 C143.446199,201.145924 144.017707,200.889333 144.613966,200.889333 L151.233562,200.889333 C157.164649,200.889333 162.456726,196.198081 162.958484,189.83899 C163.41974,184.005183 159.99069,178.887894 155.004617,177.258785" id="cloud_message-[#1566]"></path>
        </g>
    </g>
</svg>