<?xml version="1.0" encoding="UTF-8"?>
<svg width="34px" height="45px" viewBox="0 0 34 45" version="1.1" xmlns="http://www.w3.org/2000/svg" xmlns:xlink="http://www.w3.org/1999/xlink">
    <title>phone_phone [#205]</title>
    <g id="Page-1" stroke="none" stroke-width="1" fill="none" fill-rule="evenodd">
        <g id="Dashboard" transform="translate(-123.000000, -563.000000)" fill="#FFFFFF">
            <path d="M152.466667,563 L138.866667,563 C136.362,563 134.333333,565.01375 134.333333,567.5 L134.333333,569.75 C134.333333,570.992 135.3488,572 136.6,572 C137.8512,572 138.866667,570.992 138.866667,569.75 C138.866667,568.508 139.882133,567.5 141.133333,567.5 L150.2,567.5 C151.4512,567.5 152.466667,568.508 152.466667,569.75 L152.466667,587.75 C152.466667,588.992 151.4512,590 150.2,590 C148.9488,590 147.933333,591.008 147.933333,592.25 C147.933333,593.492 148.9488,594.5 150.2,594.5 L152.466667,594.5 C154.971333,594.5 157,592.48625 157,590 L157,567.5 C157,565.01375 154.971333,563 152.466667,563 M141.133333,601.25 L141.133333,581 C141.133333,579.758 140.117867,578.75 138.866667,578.75 L129.8,578.75 C128.5488,578.75 127.533333,579.758 127.533333,581 L127.533333,601.25 C127.533333,602.492 128.5488,603.5 129.8,603.5 L138.866667,603.5 C140.117867,603.5 141.133333,602.492 141.133333,601.25 M127.533333,574.25 L141.133333,574.25 C143.638,574.25 145.666667,576.26375 145.666667,578.75 L145.666667,603.5 C145.666667,605.98625 143.638,608 141.133333,608 L127.533333,608 C125.028667,608 123,605.98625 123,603.5 L123,578.75 C123,576.26375 125.028667,574.25 127.533333,574.25 M136.6952,596.75 L136.6952,596.75 C136.6952,597.992 135.679733,599 134.428533,599 C133.175067,599 132.161867,597.992 132.161867,596.75 C132.161867,595.508 133.175067,594.5 134.428533,594.5 C135.679733,594.5 136.6952,595.508 136.6952,596.75" id="phone_phone-[#205]"></path>
        </g>
    </g>
</svg>