<?xml version="1.0" encoding="UTF-8"?>
<svg width="45px" height="45px" viewBox="0 0 45 45" version="1.1" xmlns="http://www.w3.org/2000/svg" xmlns:xlink="http://www.w3.org/1999/xlink">
    <title>profile_plus [#1357]</title>
    <g id="Page-1" stroke="none" stroke-width="1" fill="none" fill-rule="evenodd">
        <g id="Dashboard" transform="translate(-118.000000, -365.000000)" fill="#FFFFFF">
            <path d="M163,371.75 L163,376.25 L156.25,376.25 L156.25,383 L151.75,383 L151.75,376.25 L145,376.25 L145,371.75 L151.75,371.75 L151.75,365 L156.25,365 L156.25,371.75 L163,371.75 Z M123.202,405.5 C124.98175,400.17425 129.9925,396.32 135.9055,396.2795 C135.937,396.2795 135.96625,396.2885 136,396.2885 C136.03375,396.2885 136.063,396.2795 136.0945,396.2795 C142.00975,396.32 147.02275,400.172 148.8025,405.5 L123.202,405.5 Z M136,382.7885 C138.48175,382.7885 140.5,384.80675 140.5,387.2885 C140.5,389.73875 138.53125,391.72775 136.0945,391.7795 C136.063,391.7795 136.0315,391.775 136,391.775 C135.9685,391.775 135.937,391.7795 135.9055,391.7795 C133.46875,391.72775 131.5,389.73875 131.5,387.2885 C131.5,384.80675 133.51825,382.7885 136,382.7885 L136,382.7885 Z M142.8085,393.11375 C144.15625,391.541 145,389.52275 145,387.2885 C145,382.31825 140.97025,378.2885 136,378.2885 C131.02975,378.2885 127,382.31825 127,387.2885 C127,389.52275 127.84375,391.541 129.1915,393.11375 C122.62825,395.7935 118,402.22175 118,409.7525 C118,409.8425 118.054,410 118.054,410 L153.9865,410 C154.486,404.5235 150.769,396.36725 142.8085,393.11375 L142.8085,393.11375 Z" id="profile_plus-[#1357]"></path>
        </g>
    </g>
</svg>