<?xml version="1.0" encoding="UTF-8"?>
<svg width="32px" height="22px" viewBox="0 0 32 22" version="1.1" xmlns="http://www.w3.org/2000/svg" xmlns:xlink="http://www.w3.org/1999/xlink">
    <title>Combined Shape</title>
    <g id="Page-1" stroke="none" stroke-width="1" fill="none" fill-rule="evenodd">
        <g id="Dashboard" transform="translate(-806.000000, -574.000000)" fill="#FFFFFF">
            <path d="M836,592.5 C836.042,592.502 836.085,592.504 836.127,592.505 C836.239,592.52 836.268,592.52 836.378,592.548 C836.666,592.623 836.929,592.785 837.126,593.009 C837.496,593.43 837.601,594.039 837.392,594.559 C837.329,594.717 837.238,594.863 837.126,594.991 C837.014,595.119 836.88,595.227 836.732,595.31 C836.583,595.392 836.421,595.45 836.254,595.478 C836.142,595.498 836.113,595.495 836,595.5 L808,595.5 C807.887,595.495 807.858,595.498 807.747,595.478 C807.453,595.428 807.177,595.289 806.962,595.083 C806.87,594.995 806.79,594.895 806.723,594.786 C806.475,594.385 806.432,593.878 806.608,593.441 C806.672,593.283 806.762,593.137 806.874,593.009 C806.986,592.881 807.12,592.773 807.268,592.69 C807.417,592.608 807.579,592.55 807.747,592.522 C807.858,592.502 807.887,592.505 808,592.5 L836,592.5 Z M836,583.5 C836.042,583.502 836.085,583.504 836.127,583.505 C836.239,583.52 836.268,583.52 836.378,583.548 C836.666,583.623 836.929,583.785 837.126,584.009 C837.238,584.137 837.329,584.283 837.392,584.441 C837.601,584.961 837.496,585.57 837.126,585.991 C837.014,586.119 836.88,586.227 836.732,586.31 C836.583,586.392 836.421,586.45 836.254,586.478 C836.142,586.498 836.113,586.495 836,586.5 L808,586.5 C807.887,586.495 807.858,586.498 807.747,586.478 C807.579,586.45 807.417,586.392 807.268,586.31 C806.857,586.079 806.572,585.658 806.512,585.191 C806.496,585.064 806.496,584.936 806.512,584.809 C806.534,584.641 806.584,584.476 806.661,584.325 C806.737,584.173 806.839,584.035 806.962,583.917 C807.177,583.711 807.453,583.572 807.747,583.522 C807.858,583.502 807.887,583.505 808,583.5 L836,583.5 Z M836,574.5 C836.042,574.502 836.085,574.504 836.127,574.505 C836.239,574.52 836.268,574.52 836.378,574.548 C836.666,574.623 836.929,574.785 837.126,575.009 C837.238,575.137 837.329,575.283 837.392,575.441 C837.455,575.598 837.491,575.767 837.499,575.936 C837.522,576.497 837.221,577.036 836.732,577.31 C836.583,577.392 836.421,577.45 836.254,577.478 C836.142,577.498 836.113,577.495 836,577.5 L808,577.5 C807.887,577.495 807.858,577.498 807.747,577.478 C807.453,577.428 807.177,577.289 806.962,577.083 C806.839,576.965 806.737,576.827 806.661,576.675 C806.584,576.524 806.534,576.359 806.512,576.191 C806.452,575.723 806.622,575.243 806.962,574.917 C807.054,574.829 807.157,574.753 807.268,574.69 C807.417,574.608 807.579,574.55 807.747,574.522 C807.858,574.502 807.887,574.505 808,574.5 L836,574.5 Z" id="Combined-Shape"></path>
        </g>
    </g>
</svg>